<svg width="239" height="47" viewBox="0 0 239 47" fill="none" xmlns="http://www.w3.org/2000/svg">
<path d="M10.896 1.25199H21.36L32.208 35.332H22.704L20.64 28.66H11.568L9.552 35.332H0L10.896 1.25199ZM19.152 22.42L16.128 10.42L12.96 22.42H19.152Z" fill="white"/>
<path d="M43.4085 35.332C41.7765 35.332 40.2725 35.012 38.8965 34.372C37.5525 33.732 36.4005 32.836 35.4405 31.684C34.4805 30.532 33.7285 29.188 33.1845 27.652C32.6725 26.116 32.4165 24.452 32.4165 22.66C32.4165 20.772 32.7045 19.044 33.2805 17.476C33.8565 15.876 34.6565 14.484 35.6805 13.3C36.7365 12.116 37.9845 11.204 39.4245 10.564C40.8645 9.92399 42.4485 9.60399 44.1765 9.60399C45.9685 9.60399 47.5525 9.97199 48.9285 10.708C50.3365 11.412 51.4405 12.452 52.2405 13.828V10.084H60.1605V33.028C60.1605 35.652 59.5205 37.94 58.2405 39.892C56.9605 41.844 55.1685 43.348 52.8645 44.404C50.5605 45.492 47.8725 46.036 44.8005 46.036C42.1445 46.036 39.8085 45.62 37.7925 44.788C35.8085 43.956 34.0485 42.756 32.5125 41.188L37.3125 36.196C38.2405 37.06 39.3445 37.78 40.6245 38.356C41.9365 38.964 43.3285 39.268 44.8005 39.268C45.9205 39.268 46.9445 39.06 47.8725 38.644C48.8325 38.228 49.6005 37.556 50.1765 36.628C50.7525 35.732 51.0405 34.532 51.0405 33.028V31.396C50.3365 32.708 49.2805 33.7 47.8725 34.372C46.4965 35.012 45.0085 35.332 43.4085 35.332ZM46.6725 28.132C47.1205 28.132 47.5365 28.084 47.9205 27.988C48.3365 27.86 48.7205 27.7 49.0725 27.508C49.4245 27.284 49.7605 27.012 50.0805 26.692C50.4325 26.34 50.7525 25.956 51.0405 25.54V21.028C50.7525 20.26 50.3525 19.604 49.8405 19.06C49.3285 18.484 48.7685 18.052 48.1605 17.764C47.5525 17.444 46.9285 17.284 46.2885 17.284C45.6485 17.284 45.0405 17.428 44.4645 17.716C43.9205 18.004 43.4405 18.42 43.0245 18.964C42.6085 19.476 42.2885 20.068 42.0645 20.74C41.8405 21.412 41.7285 22.132 41.7285 22.9C41.7285 23.668 41.8405 24.372 42.0645 25.012C42.3205 25.652 42.6725 26.212 43.1205 26.692C43.5685 27.14 44.0965 27.492 44.7045 27.748C45.3125 28.004 45.9685 28.132 46.6725 28.132Z" fill="white"/>
<path d="M81.9266 17.86C80.1666 17.86 78.5666 18.052 77.1266 18.436C75.6866 18.82 74.6146 19.46 73.9106 20.356V35.332H64.7906V10.084H73.1426V14.884C74.0386 13.188 75.1586 11.892 76.5026 10.996C77.8466 10.068 79.2706 9.60399 80.7746 9.60399C81.1266 9.60399 81.3666 9.60399 81.4946 9.60399C81.6546 9.60399 81.7986 9.61999 81.9266 9.65199V17.86Z" fill="white"/>
<path d="M97.1914 35.812C94.9514 35.812 92.9674 35.46 91.2394 34.756C89.5114 34.052 88.0554 33.092 86.8714 31.876C85.7194 30.628 84.8394 29.22 84.2314 27.652C83.6554 26.084 83.3674 24.436 83.3674 22.708C83.3674 20.98 83.6554 19.332 84.2314 17.764C84.8394 16.164 85.7194 14.756 86.8714 13.54C88.0554 12.324 89.5114 11.364 91.2394 10.66C92.9674 9.95599 94.9514 9.60399 97.1914 9.60399C99.4634 9.60399 101.447 9.95599 103.143 10.66C104.871 11.364 106.311 12.324 107.463 13.54C108.647 14.756 109.527 16.164 110.103 17.764C110.711 19.332 111.015 20.98 111.015 22.708C111.015 24.436 110.711 26.084 110.103 27.652C109.527 29.22 108.647 30.628 107.463 31.876C106.311 33.092 104.871 34.052 103.143 34.756C101.447 35.46 99.4634 35.812 97.1914 35.812ZM92.7274 22.708C92.7274 23.828 92.9194 24.804 93.3034 25.636C93.6874 26.436 94.2154 27.06 94.8874 27.508C95.5594 27.924 96.3274 28.132 97.1914 28.132C98.0554 28.132 98.8234 27.924 99.4954 27.508C100.167 27.06 100.695 26.436 101.079 25.636C101.463 24.804 101.655 23.828 101.655 22.708C101.655 21.588 101.463 20.628 101.079 19.828C100.695 18.996 100.167 18.372 99.4954 17.956C98.8234 17.508 98.0554 17.284 97.1914 17.284C96.3274 17.284 95.5594 17.508 94.8874 17.956C94.2154 18.372 93.6874 18.996 93.3034 19.828C92.9194 20.628 92.7274 21.588 92.7274 22.708Z" fill="white"/>
<path d="M134.945 12.388C134.945 12.388 134.673 12.228 134.129 11.908C133.585 11.588 132.865 11.236 131.969 10.852C131.073 10.436 130.097 10.068 129.041 9.74799C127.985 9.42799 126.945 9.26799 125.921 9.26799C125.121 9.26799 124.465 9.39599 123.953 9.65199C123.441 9.90799 123.185 10.34 123.185 10.948C123.185 11.524 123.441 11.988 123.953 12.34C124.465 12.692 125.185 13.012 126.113 13.3C127.073 13.588 128.209 13.94 129.521 14.356C131.633 14.996 133.457 15.732 134.993 16.564C136.529 17.396 137.713 18.468 138.545 19.78C139.377 21.06 139.793 22.772 139.793 24.916C139.793 26.964 139.425 28.692 138.689 30.1C137.953 31.476 136.961 32.58 135.713 33.412C134.465 34.244 133.073 34.852 131.537 35.236C130.001 35.588 128.433 35.764 126.833 35.764C125.201 35.764 123.489 35.604 121.697 35.284C119.937 34.932 118.225 34.468 116.561 33.892C114.897 33.284 113.377 32.58 112.001 31.78L116.033 23.572C116.033 23.572 116.353 23.764 116.993 24.148C117.633 24.532 118.481 24.964 119.537 25.444C120.593 25.924 121.761 26.356 123.041 26.74C124.353 27.124 125.665 27.316 126.977 27.316C128.001 27.316 128.705 27.188 129.089 26.932C129.505 26.644 129.713 26.276 129.713 25.828C129.713 25.156 129.361 24.644 128.657 24.292C127.953 23.908 127.025 23.556 125.873 23.236C124.753 22.884 123.505 22.484 122.129 22.036C120.145 21.364 118.513 20.612 117.233 19.78C115.953 18.916 115.009 17.908 114.401 16.756C113.793 15.572 113.489 14.148 113.489 12.484C113.489 9.95599 114.081 7.84399 115.265 6.14799C116.449 4.45199 118.001 3.17199 119.921 2.30799C121.873 1.41199 123.969 0.963989 126.209 0.963989C127.873 0.963989 129.473 1.17199 131.009 1.58799C132.577 1.97199 134.033 2.45199 135.377 3.02799C136.753 3.60399 137.953 4.14799 138.977 4.65999L134.945 12.388Z" fill="white"/>
<path d="M160.315 33.94C159.483 34.292 158.587 34.628 157.627 34.948C156.699 35.236 155.739 35.46 154.747 35.62C153.787 35.78 152.843 35.86 151.915 35.86C150.539 35.86 149.275 35.636 148.123 35.188C146.971 34.708 146.043 33.94 145.339 32.884C144.667 31.796 144.331 30.34 144.331 28.516V16.948H141.211V10.084H144.331V2.16399H153.451V10.084H158.395V16.948H153.451V25.3C153.451 26.132 153.627 26.724 153.979 27.076C154.331 27.396 154.811 27.556 155.419 27.556C155.867 27.556 156.379 27.476 156.955 27.316C157.531 27.156 158.107 26.964 158.683 26.74L160.315 33.94Z" fill="white"/>
<path d="M175.051 35.812C172.811 35.812 170.827 35.46 169.099 34.756C167.371 34.052 165.915 33.092 164.731 31.876C163.579 30.628 162.699 29.22 162.091 27.652C161.515 26.084 161.227 24.436 161.227 22.708C161.227 20.98 161.515 19.332 162.091 17.764C162.699 16.164 163.579 14.756 164.731 13.54C165.915 12.324 167.371 11.364 169.099 10.66C170.827 9.95599 172.811 9.60399 175.051 9.60399C177.323 9.60399 179.307 9.95599 181.003 10.66C182.731 11.364 184.171 12.324 185.323 13.54C186.507 14.756 187.387 16.164 187.963 17.764C188.571 19.332 188.875 20.98 188.875 22.708C188.875 24.436 188.571 26.084 187.963 27.652C187.387 29.22 186.507 30.628 185.323 31.876C184.171 33.092 182.731 34.052 181.003 34.756C179.307 35.46 177.323 35.812 175.051 35.812ZM170.587 22.708C170.587 23.828 170.779 24.804 171.163 25.636C171.547 26.436 172.075 27.06 172.747 27.508C173.419 27.924 174.187 28.132 175.051 28.132C175.915 28.132 176.683 27.924 177.355 27.508C178.027 27.06 178.555 26.436 178.939 25.636C179.323 24.804 179.515 23.828 179.515 22.708C179.515 21.588 179.323 20.628 178.939 19.828C178.555 18.996 178.027 18.372 177.355 17.956C176.683 17.508 175.915 17.284 175.051 17.284C174.187 17.284 173.419 17.508 172.747 17.956C172.075 18.372 171.547 18.996 171.163 19.828C170.779 20.628 170.587 21.588 170.587 22.708Z" fill="white"/>
<path d="M209.239 17.86C207.479 17.86 205.879 18.052 204.439 18.436C202.999 18.82 201.927 19.46 201.223 20.356V35.332H192.103V10.084H200.455V14.884C201.351 13.188 202.471 11.892 203.815 10.996C205.159 10.068 206.583 9.60399 208.087 9.60399C208.439 9.60399 208.679 9.60399 208.807 9.60399C208.967 9.60399 209.111 9.61999 209.239 9.65199V17.86Z" fill="white"/>
<path d="M224.504 35.812C222.296 35.812 220.328 35.476 218.6 34.804C216.872 34.1 215.416 33.156 214.232 31.972C213.08 30.788 212.2 29.428 211.592 27.892C210.984 26.356 210.68 24.74 210.68 23.044C210.68 20.612 211.208 18.388 212.264 16.372C213.32 14.324 214.872 12.692 216.92 11.476C218.968 10.228 221.496 9.60399 224.504 9.60399C227.512 9.60399 230.04 10.212 232.088 11.428C234.136 12.644 235.688 14.244 236.744 16.228C237.8 18.212 238.328 20.372 238.328 22.708C238.328 23.188 238.296 23.684 238.232 24.196C238.2 24.676 238.152 25.108 238.088 25.492H220.376C220.44 26.388 220.68 27.124 221.096 27.7C221.544 28.244 222.088 28.644 222.728 28.9C223.4 29.156 224.088 29.284 224.792 29.284C225.784 29.284 226.712 29.06 227.576 28.612C228.472 28.164 229.064 27.54 229.352 26.74L237.08 28.948C236.408 30.292 235.464 31.476 234.248 32.5C233.064 33.524 231.656 34.34 230.024 34.948C228.392 35.524 226.552 35.812 224.504 35.812ZM220.184 20.02H228.536C228.44 19.188 228.2 18.484 227.816 17.908C227.464 17.332 226.984 16.884 226.376 16.564C225.8 16.244 225.128 16.084 224.36 16.084C223.592 16.084 222.904 16.244 222.296 16.564C221.72 16.884 221.24 17.332 220.856 17.908C220.504 18.484 220.28 19.188 220.184 20.02Z" fill="white"/>
</svg>
