<svg xmlns="http://www.w3.org/2000/svg" viewBox="0 0 500 500"><g id="freepik--Shadow--inject-19"><path d="M458.88,448.39c0,3.39-93.52,6.13-208.88,6.13s-208.88-2.75-208.88-6.13,93.52-6.13,208.88-6.13,208.88,2.75,208.88,6.13Z" style="fill:#f5f5f5;"></path></g><g id="freepik--Plants--inject-19"><g><path d="M54.17,427.81c-.58-.97-1.87-2.17-2.77-2.85-.9-.68-2.14-1.02-3.19-.59-1.34,.55-1.95,2.19-1.77,3.62,.19,1.43,.87,3.24,1.68,4.43,3.48,5.09,6.69,9.75,12.06,13.53,0-6.32-2.81-12.76-6.01-18.15Z" style="fill:#407BFF;"></path><path d="M71.86,428.68c-1.2-.66-3.43,.27-4.53,1.09-2.17,1.63-3.49,3.33-4.82,5.7-1.68,3.01-1.88,7.23-2.09,9.91,4.25-3.45,8.58-6.98,11.48-11.62,.51-.81,.98-1.68,1.07-2.63,.09-.95-.28-2-1.12-2.46Z" style="fill:#407BFF;"></path><path d="M60.82,448.64c-.12,0-.22-.08-.24-.2-1.01-4.65-2.79-9.06-5.3-13.1-.07-.12-.04-.27,.08-.34,.12-.07,.27-.04,.34,.08,2.54,4.09,4.34,8.55,5.36,13.26,.03,.13-.06,.27-.19,.3-.02,0-.04,0-.05,0Z" style="fill:#263238;"></path><path d="M60.26,446.05s-.06,0-.08-.01c-.13-.05-.2-.19-.15-.32,1.14-3.14,2.8-6.04,4.94-8.6,.09-.11,.25-.12,.35-.03,.11,.09,.12,.25,.03,.35-2.1,2.52-3.74,5.37-4.86,8.45-.04,.1-.13,.17-.23,.17Z" style="fill:#263238;"></path></g><g><path d="M450.54,395.02c-.58-.97-1.87-2.17-2.77-2.85-.9-.68-2.14-1.02-3.19-.59-1.34,.55-1.95,2.19-1.77,3.62,.19,1.43,.87,3.24,1.68,4.43,3.48,5.09,6.69,9.75,12.06,13.53,0-6.32-2.81-12.76-6.01-18.15Z" style="fill:#407BFF;"></path><path d="M468.23,395.9c-1.2-.66-3.43,.27-4.53,1.09-2.17,1.63-3.49,3.33-4.82,5.7-1.68,3.01-1.88,7.23-2.09,9.91,4.25-3.45,8.58-6.98,11.48-11.62,.51-.81,.98-1.68,1.07-2.63,.09-.95-.28-2-1.12-2.46Z" style="fill:#407BFF;"></path><path d="M457.19,415.86c-.12,0-.22-.08-.24-.2-1.01-4.65-2.79-9.06-5.3-13.1-.07-.12-.04-.27,.08-.34,.12-.07,.27-.04,.34,.08,2.54,4.09,4.34,8.55,5.36,13.26,.03,.13-.06,.27-.19,.3-.02,0-.04,0-.05,0Z" style="fill:#263238;"></path><path d="M456.63,413.26s-.06,0-.08-.01c-.13-.05-.2-.19-.15-.32,1.14-3.14,2.8-6.04,4.94-8.61,.09-.11,.25-.12,.35-.03,.11,.09,.12,.25,.03,.35-2.1,2.52-3.74,5.37-4.86,8.46-.04,.1-.13,.17-.24,.17Z" style="fill:#263238;"></path></g></g><g id="freepik--Sun--inject-19"><g id="freepik--freepik--Sun--inject-5--inject-19"><g><path d="M422.96,77.66c0,2.37-3.43,4.25-4.01,6.43-.58,2.18,1.4,5.6,.26,7.57-1.14,1.97-5.07,1.93-6.69,3.55-1.63,1.62-1.55,5.54-3.55,6.69s-5.31-.86-7.57-.26c-2.26,.6-4.07,4.01-6.43,4.01s-4.25-3.43-6.43-4.01c-2.18-.58-5.59,1.41-7.57,.26-1.98-1.15-1.93-5.07-3.55-6.69-1.63-1.63-5.53-1.54-6.69-3.55-1.16-2.01,.86-5.34,.26-7.58-.6-2.25-4.01-4.06-4.01-6.43s3.43-4.24,4.01-6.42c.58-2.18-1.4-5.6-.26-7.57,1.14-1.97,5.07-1.93,6.69-3.56,1.63-1.63,1.55-5.53,3.55-6.69,2-1.16,5.31,.87,7.57,.26s4.07-4,6.43-4,4.25,3.43,6.43,4c2.18,.58,5.59-1.4,7.57-.26,1.98,1.14,1.93,5.07,3.55,6.69,1.63,1.63,5.53,1.55,6.69,3.56,1.16,2.01-.86,5.31-.26,7.57,.6,2.26,4.01,4.08,4.01,6.44Z" style="fill:#407BFF;"></path><g style="isolation:isolate; opacity:.7;"><path d="M422.96,77.66c0,2.37-3.43,4.25-4.01,6.43-.58,2.18,1.4,5.6,.26,7.57-1.14,1.97-5.07,1.93-6.69,3.55-1.63,1.62-1.55,5.54-3.55,6.69s-5.31-.86-7.57-.26c-2.26,.6-4.07,4.01-6.43,4.01s-4.25-3.43-6.43-4.01c-2.18-.58-5.59,1.41-7.57,.26-1.98-1.15-1.93-5.07-3.55-6.69-1.63-1.63-5.53-1.54-6.69-3.55-1.16-2.01,.86-5.34,.26-7.58-.6-2.25-4.01-4.06-4.01-6.43s3.43-4.24,4.01-6.42c.58-2.18-1.4-5.6-.26-7.57,1.14-1.97,5.07-1.93,6.69-3.56,1.63-1.63,1.55-5.53,3.55-6.69,2-1.16,5.31,.87,7.57,.26s4.07-4,6.43-4,4.25,3.43,6.43,4c2.18,.58,5.59-1.4,7.57-.26,1.98,1.14,1.93,5.07,3.55,6.69,1.63,1.63,5.53,1.55,6.69,3.56,1.16,2.01-.86,5.31-.26,7.57,.6,2.26,4.01,4.08,4.01,6.44Z" style="fill:#fff;"></path></g></g><circle cx="394.96" cy="77.66" r="20" transform="translate(24.39 234.82) rotate(-34.11)" style="fill:#407BFF;"></circle><circle cx="394.96" cy="77.66" r="20" transform="translate(24.39 234.82) rotate(-34.11)" style="fill:#fff; isolation:isolate; opacity:.5;"></circle></g></g><g id="freepik--Fence--inject-19"><g><g><rect x="376.42" y="309.94" width="103.49" height="12.78" style="fill:#407BFF;"></rect><rect x="376.42" y="309.94" width="103.49" height="12.78" style="fill:#fff; opacity:.3;"></rect><g><polygon points="451.2 367.38 435.97 367.38 435.97 289.36 443.58 280.79 451.2 289.36 451.2 367.38" style="fill:#407BFF;"></polygon><polygon points="451.2 367.38 435.97 367.38 435.97 289.36 443.58 280.79 451.2 289.36 451.2 367.38" style="fill:#fff; opacity:.6;"></polygon></g><g><polygon points="479.91 367.38 464.68 367.38 464.68 289.36 472.29 280.79 479.91 289.36 479.91 367.38" style="fill:#407BFF;"></polygon><polygon points="479.91 367.38 464.68 367.38 464.68 289.36 472.29 280.79 479.91 289.36 479.91 367.38" style="fill:#fff; opacity:.6;"></polygon></g><g><polygon points="422.49 367.38 407.26 367.38 407.26 289.36 414.88 280.79 422.49 289.36 422.49 367.38" style="fill:#407BFF;"></polygon><polygon points="422.49 367.38 407.26 367.38 407.26 289.36 414.88 280.79 422.49 289.36 422.49 367.38" style="fill:#fff; opacity:.6;"></polygon></g><path d="M416.43,316.33c0,.86-.69,1.55-1.55,1.55s-1.55-.69-1.55-1.55,.69-1.55,1.55-1.55,1.55,.69,1.55,1.55Z" style="fill:#263238;"></path><g><polygon points="393.34 367.38 378.11 367.38 378.11 289.36 385.73 280.79 393.34 289.36 393.34 367.38" style="fill:#407BFF;"></polygon><polygon points="393.34 367.38 378.11 367.38 378.11 289.36 385.73 280.79 393.34 289.36 393.34 367.38" style="fill:#fff; opacity:.6;"></polygon></g><circle cx="385.73" cy="316.33" r="1.55" style="fill:#263238;"></circle><path d="M445.68,316.33c0,.86-.69,1.55-1.55,1.55s-1.55-.69-1.55-1.55,.69-1.55,1.55-1.55,1.55,.69,1.55,1.55Z" style="fill:#263238;"></path><circle cx="472.29" cy="316.33" r="1.55" style="fill:#263238;"></circle></g><g><rect x="31.2" y="309.94" width="103.49" height="12.78" style="fill:#407BFF;"></rect><rect x="31.2" y="309.94" width="103.49" height="12.78" style="fill:#fff; opacity:.3;"></rect><g><polygon points="105.98 367.38 90.74 367.38 90.74 289.36 98.36 280.79 105.98 289.36 105.98 367.38" style="fill:#407BFF;"></polygon><polygon points="105.98 367.38 90.74 367.38 90.74 289.36 98.36 280.79 105.98 289.36 105.98 367.38" style="fill:#fff; opacity:.6;"></polygon></g><g><polygon points="134.69 367.38 119.45 367.38 119.45 289.36 127.07 280.79 134.69 289.36 134.69 367.38" style="fill:#407BFF;"></polygon><polygon points="134.69 367.38 119.45 367.38 119.45 289.36 127.07 280.79 134.69 289.36 134.69 367.38" style="fill:#fff; opacity:.6;"></polygon></g><g><polygon points="77.27 367.38 62.03 367.38 62.03 289.36 69.65 280.79 77.27 289.36 77.27 367.38" style="fill:#407BFF;"></polygon><polygon points="77.27 367.38 62.03 367.38 62.03 289.36 69.65 280.79 77.27 289.36 77.27 367.38" style="fill:#fff; opacity:.6;"></polygon></g><circle cx="69.65" cy="316.33" r="1.55" style="fill:#263238;"></circle><g><polygon points="48.12 367.38 32.88 367.38 32.88 289.36 40.5 280.79 48.12 289.36 48.12 367.38" style="fill:#407BFF;"></polygon><polygon points="48.12 367.38 32.88 367.38 32.88 289.36 40.5 280.79 48.12 289.36 48.12 367.38" style="fill:#fff; opacity:.6;"></polygon></g><path d="M42.05,316.33c0,.86-.69,1.55-1.55,1.55s-1.55-.69-1.55-1.55,.69-1.55,1.55-1.55,1.55,.69,1.55,1.55Z" style="fill:#263238;"></path><circle cx="98.9" cy="316.33" r="1.55" style="fill:#263238;"></circle><path d="M128.62,316.33c0,.86-.69,1.55-1.55,1.55s-1.55-.69-1.55-1.55,.69-1.55,1.55-1.55,1.55,.69,1.55,1.55Z" style="fill:#263238;"></path></g></g></g><g id="freepik--Farm_Tractor--inject-19"><g><polygon points="281.75 236.45 280.75 236.45 280.75 217.46 264.13 217.46 264.13 216.46 281.75 216.46 281.75 236.45" style="fill:#263238;"></polygon><path d="M276.73,220.24h1.5c4.16,0,7.53,3.38,7.53,7.53v17.89c0,4.16-3.38,7.53-7.53,7.53h-1.5v-32.96h0Z" style="fill:#263238;"></path><rect x="387.35" y="310.32" width="7.61" height="33.66" style="fill:#263238;"></rect><path d="M192.89,392.79c2.47,.29,189.68-.41,189.68-.41l6.79-31.09-87.13-28.26-5.49-48.63h-33.57l-5.58,38.74-58.07-23.38-73.49-6.22-6.46,45.08,73.31,54.16Z" style="fill:#407BFF;"></path><path d="M192.89,392.79c2.47,.29,189.68-.41,189.68-.41l6.79-31.09-87.13-28.26-5.49-48.63h-33.57l-5.58,38.74-58.07-23.38-73.49-6.22-6.46,45.08,73.31,54.16Z" style="opacity:.5;"></path><polygon points="127.08 209.82 118.56 300.98 173.18 302.73 207.23 317.74 233.83 348.13 272.49 348.13 270.83 328.53 263.6 203.19 127.08 209.82" style="fill:#407BFF;"></polygon><polygon points="127.16 209.82 118.65 300.98 173.27 302.73 207.32 317.74 233.92 348.13 272.58 348.13 270.92 328.53 268.6 290.1 263.69 203.19 127.16 209.82" style="fill:#fff; opacity:.5;"></polygon><path d="M194.16,290.66s-21.17-41.93-24.37-41.93-5.16,1.33-8.18,2.67c-3.02,1.34,1.07,39.26,1.07,39.26h31.48Z" style="fill:#263238;"></path><path d="M136.29,290.1l79.1-77.89s35.47,0,34.05,0-76.42,77.89-76.42,77.89h-36.74Z" style="fill:#fff; opacity:.3;"></path><path d="M387.8,302.24c-4.48-7.33-112.48-19.56-113.53-19.91l3.83,79.97,24.88,1.06s82.18,3.14,82.97,2.79c.79-.35,6.32-56.58,1.84-63.92Z" style="fill:#407BFF;"></path><path d="M266.06,212.21H123.65c-1.57,0-2.84-1.27-2.84-2.84h0c0-1.57,1.27-2.84,2.84-2.84h142.41c1.57,0,2.84,1.27,2.84,2.84h0c0,1.57-1.27,2.84-2.84,2.84Z" style="fill:#407BFF;"></path><path d="M129.11,197.8h132.24c2.36,0,4.27,1.91,4.27,4.27v5.7H124.85v-5.7c0-2.36,1.91-4.27,4.27-4.27Z" style="fill:#407BFF;"></path><path d="M291.39,296.7v-86.59s.76-9.7,13.73-9.7v7.09s-6.86-1.8-6.86,4.88v84.64l-6.86-.33Z" style="fill:#263238;"></path><g><g><ellipse cx="156.05" cy="381.71" rx="67.38" ry="65.93" style="fill:#263238;"></ellipse><path d="M155.99,450.63h-.06c-2.13-.08-4.24-.24-6.29-.45l.63-5.97c1.9,.2,3.86,.34,5.83,.42,1.96,0,3.94-.09,5.87-.26l.53,5.98c-2.13,.19-4.3,.29-6.46,.29h-.06Zm19.15-2.57l-1.59-5.79c3.78-1.04,7.48-2.43,11-4.13l2.61,5.4c-3.85,1.86-7.89,3.38-12.02,4.52Zm-38.04-.15c-4.21-1.1-8.27-2.54-12.08-4.28l2.49-5.46c3.49,1.6,7.23,2.92,11.1,3.93l-1.52,5.8Zm-23.22-10.7c-3.51-2.5-6.78-5.35-9.71-8.48l4.38-4.1c2.66,2.83,5.62,5.42,8.81,7.69l-3.48,4.89Zm84.29-.28l-3.55-4.84c3.16-2.32,6.12-4.93,8.8-7.78l4.37,4.11c-2.93,3.11-6.17,5.97-9.63,8.51Zm-101.83-18.42c-2.25-3.62-4.17-7.5-5.7-11.54l5.61-2.14c1.4,3.68,3.15,7.21,5.2,10.51l-5.1,3.16Zm119.37-.21l-5.05-3.24c2.12-3.3,3.92-6.81,5.37-10.43l5.57,2.23c-1.59,3.97-3.57,7.82-5.89,11.44Zm-128.52-23.7c-.77-4.2-1.16-8.5-1.16-12.79h6c0,3.92,.36,7.86,1.07,11.71l-5.9,1.08Zm138.04-.08l-5.89-1.13c.73-3.82,1.1-7.75,1.1-11.67v-.19h6v.19c0,4.3-.41,8.61-1.21,12.8Zm-132.17-24.43l-5.91-1.06c.76-4.24,1.91-8.41,3.41-12.39l5.61,2.12c-1.37,3.64-2.42,7.45-3.12,11.33Zm126.24-.23c-.75-3.83-1.87-7.61-3.33-11.24l5.56-2.25c1.61,3.98,2.84,8.13,3.66,12.34l-5.89,1.15Zm-117.96-21.62l-5.11-3.15c2.26-3.67,4.89-7.12,7.81-10.25l4.39,4.09c-2.65,2.84-5.03,5.97-7.09,9.31Zm109.22-.03c-2.11-3.28-4.55-6.38-7.25-9.23l4.36-4.13c2.95,3.12,5.63,6.52,7.94,10.11l-5.04,3.25Zm-16.08-16.99c-3.17-2.3-6.56-4.33-10.09-6.03l2.6-5.41c3.86,1.85,7.57,4.07,11.03,6.59l-3.53,4.85Zm-77.27-.01l-3.5-4.88c3.44-2.47,7.19-4.64,11.12-6.45l2.51,5.45c-3.59,1.66-7,3.63-10.14,5.88Zm21.23-9.85l-1.53-5.8c4-1.06,8.22-1.83,12.54-2.3l.64,5.96c-4.02,.44-7.94,1.15-11.65,2.13Zm34.94-.27c-3.77-1.03-7.66-1.72-11.58-2.05l.52-5.98c4.27,.37,8.52,1.12,12.64,2.24l-1.58,5.79Z" style="fill:#263238;"></path></g><ellipse cx="156.05" cy="381.71" rx="32.52" ry="31.82" style="fill:#fff; opacity:.3;"></ellipse><ellipse cx="156.05" cy="381.71" rx="21.91" ry="21.43" style="fill:#fff; opacity:.3;"></ellipse></g><g><g><ellipse cx="369.89" cy="398.16" rx="50.57" ry="49.47" style="fill:#263238;"></ellipse><path d="M369.83,450.63h-.06c-2.11-.08-4.21-.26-6.23-.52l.76-5.95c1.82,.23,3.72,.39,5.64,.47,1.9,0,3.81-.12,5.67-.33l.7,5.96c-2.12,.25-4.28,.37-6.43,.38h-.06Zm18.9-3.34l-2.07-5.63c3.56-1.31,6.96-3.04,10.11-5.15l3.34,4.98c-3.54,2.38-7.37,4.33-11.37,5.8Zm-37.53-.02c-4.11-1.42-7.98-3.29-11.49-5.56l3.26-5.04c3.11,2.01,6.54,3.67,10.2,4.93l-1.96,5.67Zm-21.28-13.84c-2.87-3.15-5.34-6.69-7.33-10.51l5.32-2.78c1.76,3.37,3.93,6.48,6.45,9.25l-4.44,4.04Zm79.87-.25l-4.43-4.05c2.57-2.8,4.78-5.91,6.58-9.22l5.27,2.86c-2.03,3.74-4.53,7.24-7.42,10.4Zm-91.68-22.24c-1-4.13-1.5-8.39-1.51-12.67h6c0,3.8,.46,7.59,1.35,11.26l-5.83,1.41Zm103.77-.08l-5.82-1.47c.93-3.65,1.39-7.42,1.39-11.22v-.21h6v.21c0,4.29-.53,8.56-1.58,12.69Zm-97.99-23.88l-5.84-1.38c.99-4.19,2.48-8.23,4.43-11.99l5.33,2.76c-1.72,3.33-3.04,6.9-3.92,10.62Zm92.12-.23c-.94-3.65-2.34-7.18-4.17-10.51l5.26-2.88c2.06,3.76,3.65,7.76,4.72,11.89l-5.81,1.5Zm-81.79-19.67l-4.46-4.02c2.86-3.17,6.14-5.97,9.75-8.33l3.28,5.03c-3.17,2.07-6.06,4.53-8.57,7.32Zm71.01-.03c-2.56-2.78-5.47-5.25-8.63-7.35l3.32-5c3.56,2.37,6.83,5.15,9.72,8.28l-4.41,4.07Zm-52.26-12.27l-1.98-5.66c3.87-1.35,8.02-2.33,12.34-2.89l.78,5.95c-3.91,.51-7.65,1.39-11.14,2.61Zm33.5-.2c-3.55-1.29-7.27-2.16-11.05-2.59l.67-5.96c4.25,.48,8.43,1.46,12.42,2.91l-2.05,5.64Z" style="fill:#263238;"></path></g><ellipse cx="369.89" cy="398.16" rx="24.41" ry="23.88" style="fill:#fff; opacity:.3;"></ellipse><ellipse cx="369.89" cy="398.16" rx="16.44" ry="16.09" style="fill:#fff; opacity:.3;"></ellipse></g><polygon points="118.56 303.29 119.58 290.1 268.6 290.1 271.97 348.12 231.47 348.13 201.87 309.22 170.27 304.28 118.56 303.29" style="fill:#407BFF;"></polygon><path d="M267.45,268.9l-7.49-1.34-18.99,16.58-5.99-9.94,10.84-10.12c.56-.66,.54-1.6-.05-2.24h0c-.58-.65-1.58-.83-2.39-.44l-30.19,14.5c-1.04,.5-1.53,1.62-1.16,2.65h0c.33,.91,1.26,1.52,2.31,1.51l11.07-1.94,7.56,13.76-9.6,9.58,14.99,16.95,7.2,1.47,2,16.4,23.28,.17-2.24-46.36-1.15-21.2Z" style="fill:#263238;"></path><polygon points="118.56 303.29 119.58 290.1 268.6 290.1 272.49 348.13 231.47 348.13 201.87 309.22 170.27 304.28 118.56 303.29" style="fill:#407BFF;"></polygon><path d="M103.52,309.71s-.76-11.53,0-11.53,62.13-12.92,98.89,11.53c36.75,24.45,35.99,42.61,35.99,42.61l-9.85,2.79s-23.87-64.61-125.03-45.4Z" style="fill:#407BFF;"></path><path d="M103.52,309.71s-.76-11.53,0-11.53,62.13-12.92,98.89,11.53c36.75,24.45,35.99,42.61,35.99,42.61l-9.85,2.79s-23.87-64.61-125.03-45.4Z" style="opacity:.3;"></path><g><rect x="191.71" y="209.6" width="7.81" height="82.48" style="fill:#407BFF;"></rect><path d="M206.73,231.93h-9.01v-6.28h9.01c1.73,0,3.14,1.4,3.14,3.14h0c0,1.73-1.4,3.14-3.14,3.14Z" style="fill:#407BFF;"></path><path d="M206.73,267.71h-9.01v-6.28h9.01c1.73,0,3.14,1.4,3.14,3.14h0c0,1.73-1.4,3.14-3.14,3.14Z" style="fill:#407BFF;"></path></g><path d="M121.07,274.18s56.45-61.97,57.26-61.97h13.39l-72.13,77.89,1.49-15.92Z" style="fill:#fff; opacity:.3;"></path><g style="opacity:.3;"><path d="M274.95,296.47c37.57,1.38,65.8,2.25,65.8,2.25,0,0-39.82-11.14-66.23-11.14l.43,8.89Z"></path></g><rect x="236.72" y="369.32" width="39.06" height="16.19" style="fill:#263238;"></rect><rect x="236.41" y="388.36" width="39.67" height="6.02" style="fill:#263238;"></rect><path d="M300.35,345.46h0c-1.16,0-2.1-.94-2.1-2.1v-25.48c0-1.16,.94-2.1,2.1-2.1h0c1.16,0,2.1,.94,2.1,2.1v25.48c0,1.16-.94,2.1-2.1,2.1Z" style="opacity:.3;"></path><path d="M308.33,345.46h0c-1.16,0-2.1-.94-2.1-2.1v-25.48c0-1.16,.94-2.1,2.1-2.1h0c1.16,0,2.1,.94,2.1,2.1v25.48c0,1.16-.94,2.1-2.1,2.1Z" style="opacity:.3;"></path><path d="M316.31,345.46h0c-1.16,0-2.1-.94-2.1-2.1v-25.48c0-1.16,.94-2.1,2.1-2.1h0c1.16,0,2.1,.94,2.1,2.1v25.48c0,1.16-.94,2.1-2.1,2.1Z" style="opacity:.3;"></path><path d="M324.28,345.46h0c-1.16,0-2.1-.94-2.1-2.1v-25.48c0-1.16,.94-2.1,2.1-2.1h0c1.16,0,2.1,.94,2.1,2.1v25.48c0,1.16-.94,2.1-2.1,2.1Z" style="opacity:.3;"></path><path d="M265.62,206.26H124.94v-3.08h140.68v3.08Z" style="opacity:.3;"></path><path d="M119.59,289.63c41.58-.15,104.33,.04,146.48,0-6.1,.2-12.2,.33-18.31,.48-42.64,.78-85.57,.62-128.17-.48h0Z" style="fill:#263238;"></path><path d="M298.25,317.46c.68,8.55,.68,17.2,0,25.74-.68-8.55-.68-17.2,0-25.74h0Z" style="fill:#263238;"></path><path d="M306.3,317.46c.68,8.55,.68,17.2,0,25.74-.68-8.55-.68-17.2,0-25.74h0Z" style="fill:#263238;"></path><path d="M314.34,317.46c.68,8.55,.68,17.2,0,25.74-.68-8.55-.68-17.2,0-25.74h0Z" style="fill:#263238;"></path><path d="M322.38,317.46c.68,8.55,.68,17.2,0,25.74-.68-8.55-.68-17.2,0-25.74h0Z" style="fill:#263238;"></path><path d="M274.52,307.02c36.99,1.76,78.07,4.46,115.01,7.53-37.03-1.77-78.09-4.45-115.01-7.53h0Z" style="fill:#263238;"></path><path d="M195.35,289.82c.68,5.27,.69,10.56,0,15.83-.69-5.27-.68-10.56,0-15.83h0Z" style="fill:#263238;"></path><path d="M214.57,299.6h-10.79c-1.33,0-2.42-1.08-2.42-2.42h0c0-1.33,1.08-2.42,2.42-2.42h10.79c1.33,0,2.42,1.08,2.42,2.42h0c0,1.33-1.08,2.42-2.42,2.42Z" style="opacity:.3;"></path></g></g></svg>
